<svg width="21" height="21" viewBox="0 0 21 21" fill="none" xmlns="http://www.w3.org/2000/svg">
<mask id="mask0_84_192" style="mask-type:alpha" maskUnits="userSpaceOnUse" x="0" y="0" width="21" height="21">
<rect width="20.6471" height="20.6471" fill="#D9D9D9"/>
</mask>
<g mask="url(#mask0_84_192)">
<path d="M5.16169 18.9264C4.68853 18.9264 4.28347 18.758 3.94653 18.421C3.60958 18.0841 3.4411 17.679 3.4411 17.2059V8.60289C3.4411 8.12973 3.60958 7.72468 3.94653 7.38773C4.28347 7.05078 4.68853 6.8823 5.16169 6.8823H6.02199V5.16171C6.02199 3.97163 6.44138 2.9572 7.28017 2.11841C8.11896 1.27962 9.13339 0.860229 10.3235 0.860229C11.5135 0.860229 12.528 1.27962 13.3668 2.11841C14.2056 2.9572 14.625 3.97163 14.625 5.16171V6.8823H15.4852C15.9584 6.8823 16.3635 7.05078 16.7004 7.38773C17.0374 7.72468 17.2058 8.12973 17.2058 8.60289V17.2059C17.2058 17.679 17.0374 18.0841 16.7004 18.421C16.3635 18.758 15.9584 18.9264 15.4852 18.9264H5.16169ZM11.5386 14.1195C11.8756 13.7826 12.0441 13.3775 12.0441 12.9044C12.0441 12.4312 11.8756 12.0262 11.5386 11.6892C11.2017 11.3523 10.7966 11.1838 10.3235 11.1838C9.85031 11.1838 9.44525 11.3523 9.1083 11.6892C8.77135 12.0262 8.60288 12.4312 8.60288 12.9044C8.60288 13.3775 8.77135 13.7826 9.1083 14.1195C9.44525 14.4565 9.85031 14.625 10.3235 14.625C10.7966 14.625 11.2017 14.4565 11.5386 14.1195ZM7.74258 6.8823H12.9044V5.16171C12.9044 4.4448 12.6534 3.83542 12.1516 3.33358C11.6498 2.83174 11.0404 2.58082 10.3235 2.58082C9.60656 2.58082 8.99718 2.83174 8.49534 3.33358C7.9935 3.83542 7.74258 4.4448 7.74258 5.16171V6.8823Z" fill="#616872"/>
</g>
</svg>
