<svg width="396" height="351" viewBox="0 0 396 351" fill="none" xmlns="http://www.w3.org/2000/svg">
<g filter="url(#filter0_d_1160_681)">
<path d="M176.94 3C224.183 3 263.714 36.8303 273.725 82.1396C279.308 81.1406 285.051 80.6191 290.913 80.6191C345.718 80.6194 390.146 126.148 390.146 182.31C390.146 234.379 351.957 277.306 302.715 283.286C299.34 283.756 295.892 284 292.387 284H79.1797C38.2115 284 5.00021 250.788 5 209.82C5 168.852 38.2114 135.64 79.1797 135.64H82.3877C79.3484 125.881 77.7061 115.482 77.7061 104.69C77.7061 48.5284 122.135 3.00011 176.94 3Z" fill="url(#paint0_linear_1160_681)"/>
<g filter="url(#filter1_d_1160_681)">
<path fill-rule="evenodd" clip-rule="evenodd" d="M198 144C211.422 144 222.303 154.881 222.303 168.303C222.303 176.717 218.026 184.132 211.528 188.494L226.264 214.016C228.357 217.642 225.74 222.175 221.553 222.175H174.447C170.26 222.175 167.644 217.642 169.737 214.016L184.472 188.494C177.974 184.132 173.697 176.717 173.697 168.303C173.697 154.881 184.578 144 198 144Z" fill="#BEC1CF"/>
</g>
</g>
<g filter="url(#filter2_d_1160_681)">
<path d="M77.955 338.675C74.685 338.675 71.865 337.97 69.495 336.56C67.125 335.12 65.295 333.095 64.005 330.485C62.715 327.845 62.07 324.725 62.07 321.125C62.07 317.525 62.7 314.42 63.96 311.81C65.25 309.17 67.065 307.145 69.405 305.735C71.775 304.295 74.55 303.575 77.73 303.575C80.58 303.575 83.055 304.115 85.155 305.195C87.285 306.275 88.95 307.775 90.15 309.695C91.35 311.615 91.98 313.82 92.04 316.31H84.12C83.88 314.63 83.205 313.25 82.095 312.17C81.015 311.09 79.59 310.55 77.82 310.55C75.45 310.55 73.575 311.51 72.195 313.43C70.845 315.35 70.17 317.93 70.17 321.17C70.17 324.35 70.845 326.915 72.195 328.865C73.575 330.815 75.525 331.79 78.045 331.79C79.485 331.79 80.64 331.49 81.51 330.89C82.41 330.29 83.085 329.51 83.535 328.55C83.985 327.56 84.27 326.51 84.39 325.4H92.265C92.145 328.19 91.47 330.575 90.24 332.555C89.04 334.535 87.39 336.05 85.29 337.1C83.22 338.15 80.775 338.675 77.955 338.675ZM104.732 338C102.632 338 100.937 337.37 99.6471 336.11C98.3871 334.82 97.7571 333.125 97.7571 331.025V304.25H105.047V329.765C105.047 330.335 105.227 330.8 105.587 331.16C105.947 331.52 106.397 331.7 106.937 331.7H108.332V338H104.732ZM125.62 338.675C123.07 338.675 120.805 338.105 118.825 336.965C116.845 335.825 115.285 334.25 114.145 332.24C113.035 330.2 112.48 327.875 112.48 325.265C112.48 322.595 113.035 320.24 114.145 318.2C115.285 316.16 116.845 314.57 118.825 313.43C120.805 312.26 123.07 311.675 125.62 311.675C128.2 311.675 130.465 312.26 132.415 313.43C134.395 314.57 135.94 316.16 137.05 318.2C138.19 320.24 138.76 322.595 138.76 325.265C138.76 327.875 138.19 330.2 137.05 332.24C135.94 334.25 134.395 335.825 132.415 336.965C130.465 338.105 128.2 338.675 125.62 338.675ZM125.62 332.375C127.3 332.375 128.665 331.715 129.715 330.395C130.795 329.075 131.335 327.365 131.335 325.265C131.335 323.105 130.795 321.35 129.715 320C128.665 318.65 127.3 317.975 125.62 317.975C123.94 317.975 122.56 318.65 121.48 320C120.43 321.35 119.905 323.105 119.905 325.265C119.905 327.365 120.43 329.075 121.48 330.395C122.56 331.715 123.94 332.375 125.62 332.375ZM155.391 338.675C153.141 338.675 151.131 338.195 149.361 337.235C147.621 336.275 146.256 334.955 145.266 333.275C144.276 331.565 143.781 329.615 143.781 327.425V312.35H151.071V327.695C151.071 329.075 151.476 330.2 152.286 331.07C153.096 331.94 154.131 332.375 155.391 332.375C156.651 332.375 157.686 331.94 158.496 331.07C159.306 330.2 159.711 329.075 159.711 327.695V312.35H167.001V327.425C167.001 329.615 166.506 331.565 165.516 333.275C164.526 334.955 163.161 336.275 161.421 337.235C159.681 338.195 157.671 338.675 155.391 338.675ZM184.15 338.675C181.78 338.675 179.68 338.105 177.85 336.965C176.05 335.795 174.625 334.19 173.575 332.15C172.555 330.08 172.045 327.71 172.045 325.04C172.045 322.43 172.525 320.12 173.485 318.11C174.445 316.1 175.78 314.525 177.49 313.385C179.2 312.245 181.15 311.675 183.34 311.675C184.87 311.675 186.265 311.945 187.525 312.485C188.815 313.025 189.88 313.835 190.72 314.915V304.25H198.01V338H191.845L191.305 334.49C189.745 337.28 187.36 338.675 184.15 338.675ZM185.23 332.285C186.91 332.285 188.245 331.625 189.235 330.305C190.225 328.985 190.72 327.2 190.72 324.95C190.72 322.7 190.225 320.93 189.235 319.64C188.245 318.32 186.91 317.66 185.23 317.66C183.46 317.66 182.05 318.32 181 319.64C179.98 320.93 179.47 322.7 179.47 324.95C179.47 327.2 179.98 328.985 181 330.305C182.05 331.625 183.46 332.285 185.23 332.285ZM204.847 338V304.25H212.137V314.87C212.977 313.82 213.997 313.025 215.197 312.485C216.427 311.945 217.747 311.675 219.157 311.675C220.507 311.675 221.872 311.93 223.252 312.44C224.632 312.95 225.892 313.76 227.032 314.87C228.172 315.95 229.087 317.345 229.777 319.055C230.467 320.765 230.812 322.835 230.812 325.265C230.812 327.875 230.347 330.2 229.417 332.24C228.487 334.25 227.182 335.825 225.502 336.965C223.822 338.105 221.842 338.675 219.562 338.675C217.942 338.675 216.427 338.3 215.017 337.55C213.607 336.77 212.467 335.66 211.597 334.22L211.012 338H204.847ZM217.627 332.285C219.397 332.285 220.792 331.625 221.812 330.305C222.862 328.985 223.387 327.2 223.387 324.95C223.387 322.7 222.862 320.93 221.812 319.64C220.792 318.32 219.397 317.66 217.627 317.66C215.947 317.66 214.612 318.32 213.622 319.64C212.632 320.93 212.137 322.7 212.137 324.95C212.137 327.2 212.632 328.985 213.622 330.305C214.612 331.625 215.947 332.285 217.627 332.285ZM239.808 309.56C238.638 309.56 237.648 309.215 236.838 308.525C236.058 307.835 235.668 306.935 235.668 305.825C235.668 304.745 236.058 303.86 236.838 303.17C237.648 302.48 238.638 302.135 239.808 302.135C240.948 302.135 241.908 302.48 242.688 303.17C243.498 303.86 243.903 304.745 243.903 305.825C243.903 306.935 243.498 307.835 242.688 308.525C241.908 309.215 240.948 309.56 239.808 309.56ZM236.163 338V312.35H243.453V338H236.163ZM249.42 338V322.925C249.42 320.615 249.885 318.62 250.815 316.94C251.775 315.26 253.125 313.97 254.865 313.07C256.605 312.14 258.66 311.675 261.03 311.675C263.4 311.675 265.455 312.14 267.195 313.07C268.935 313.97 270.27 315.26 271.2 316.94C272.16 318.62 272.64 320.615 272.64 322.925V338H265.35V323.015C265.35 321.395 264.945 320.15 264.135 319.28C263.355 318.41 262.32 317.975 261.03 317.975C259.77 317.975 258.735 318.41 257.925 319.28C257.115 320.15 256.71 321.395 256.71 323.015V338H249.42ZM290.598 338.675C287.988 338.675 285.723 338.135 283.803 337.055C281.883 335.945 280.383 334.385 279.303 332.375C278.253 330.335 277.728 327.935 277.728 325.175C277.728 322.415 278.253 320.03 279.303 318.02C280.353 316.01 281.823 314.45 283.713 313.34C285.633 312.23 287.883 311.675 290.463 311.675C293.133 311.675 295.398 312.275 297.258 313.475C299.148 314.675 300.558 316.415 301.488 318.695C302.448 320.975 302.853 323.72 302.703 326.93H285.063C285.303 328.85 285.933 330.35 286.953 331.43C287.973 332.51 289.293 333.05 290.913 333.05C292.233 333.05 293.313 332.735 294.153 332.105C294.993 331.445 295.518 330.65 295.728 329.72H302.523C302.223 331.58 301.518 333.185 300.408 334.535C299.328 335.855 297.948 336.875 296.268 337.595C294.588 338.315 292.698 338.675 290.598 338.675ZM290.508 317.255C289.038 317.255 287.823 317.735 286.863 318.695C285.903 319.625 285.303 320.885 285.063 322.475H295.503C295.383 320.585 294.828 319.25 293.838 318.47C292.848 317.66 291.738 317.255 290.508 317.255ZM317.311 338C315.211 338 313.516 337.37 312.226 336.11C310.966 334.82 310.336 333.125 310.336 331.025V318.2H306.106V312.35H310.336V305.6H317.626V312.35H322.846V318.2H317.626V329.765C317.626 330.335 317.806 330.8 318.166 331.16C318.526 331.52 318.976 331.7 319.516 331.7H323.611V338H317.311Z" fill="url(#paint1_linear_1160_681)"/>
</g>
<defs>
<filter id="filter0_d_1160_681" x="0" y="0" width="395.146" height="291" filterUnits="userSpaceOnUse" color-interpolation-filters="sRGB">
<feFlood flood-opacity="0" result="BackgroundImageFix"/>
<feColorMatrix in="SourceAlpha" type="matrix" values="0 0 0 0 0 0 0 0 0 0 0 0 0 0 0 0 0 0 127 0" result="hardAlpha"/>
<feOffset dy="2"/>
<feGaussianBlur stdDeviation="2.5"/>
<feComposite in2="hardAlpha" operator="out"/>
<feColorMatrix type="matrix" values="0 0 0 0 0.420673 0 0 0 0 0.40955 0 0 0 0 0.40955 0 0 0 0.25 0"/>
<feBlend mode="normal" in2="BackgroundImageFix" result="effect1_dropShadow_1160_681"/>
<feBlend mode="normal" in="SourceGraphic" in2="effect1_dropShadow_1160_681" result="shape"/>
</filter>
<filter id="filter1_d_1160_681" x="156" y="141" width="78" height="98.1748" filterUnits="userSpaceOnUse" color-interpolation-filters="sRGB">
<feFlood flood-opacity="0" result="BackgroundImageFix"/>
<feColorMatrix in="SourceAlpha" type="matrix" values="0 0 0 0 0 0 0 0 0 0 0 0 0 0 0 0 0 0 127 0" result="hardAlpha"/>
<feOffset dx="-3" dy="7"/>
<feGaussianBlur stdDeviation="5"/>
<feComposite in2="hardAlpha" operator="out"/>
<feColorMatrix type="matrix" values="0 0 0 0 0.870181 0 0 0 0 0.879802 0 0 0 0 0.889423 0 0 0 1 0"/>
<feBlend mode="normal" in2="BackgroundImageFix" result="effect1_dropShadow_1160_681"/>
<feBlend mode="normal" in="SourceGraphic" in2="effect1_dropShadow_1160_681" result="shape"/>
</filter>
<filter id="filter2_d_1160_681" x="57.0701" y="299.135" width="271.541" height="46.54" filterUnits="userSpaceOnUse" color-interpolation-filters="sRGB">
<feFlood flood-opacity="0" result="BackgroundImageFix"/>
<feColorMatrix in="SourceAlpha" type="matrix" values="0 0 0 0 0 0 0 0 0 0 0 0 0 0 0 0 0 0 127 0" result="hardAlpha"/>
<feOffset dy="2"/>
<feGaussianBlur stdDeviation="2.5"/>
<feComposite in2="hardAlpha" operator="out"/>
<feColorMatrix type="matrix" values="0 0 0 0 0.420673 0 0 0 0 0.40955 0 0 0 0 0.40955 0 0 0 0.25 0"/>
<feBlend mode="normal" in2="BackgroundImageFix" result="effect1_dropShadow_1160_681"/>
<feBlend mode="normal" in="SourceGraphic" in2="effect1_dropShadow_1160_681" result="shape"/>
</filter>
<linearGradient id="paint0_linear_1160_681" x1="223.5" y1="291" x2="46.4998" y2="40.0002" gradientUnits="userSpaceOnUse">
<stop stop-color="#DBE1E8"/>
<stop offset="1" stop-color="white"/>
</linearGradient>
<linearGradient id="paint1_linear_1160_681" x1="60" y1="321.5" x2="325" y2="321.5" gradientUnits="userSpaceOnUse">
<stop stop-color="#BEC1CF"/>
<stop offset="1" stop-color="#606269"/>
</linearGradient>
</defs>
</svg>
