<svg width="386" height="348" viewBox="0 0 386 348" fill="none" xmlns="http://www.w3.org/2000/svg">
<path d="M171.94 0C219.183 0 258.714 33.8303 268.725 79.1396C274.308 78.1406 280.051 77.6191 285.913 77.6191C340.718 77.6194 385.146 123.148 385.146 179.31C385.146 231.379 346.957 274.306 297.715 280.286C294.34 280.756 290.892 281 287.387 281H74.1797C33.2115 281 0.000206188 247.788 0 206.82C0 165.852 33.2114 132.64 74.1797 132.64H77.3877C74.3484 122.881 72.7061 112.482 72.7061 101.69C72.7061 45.5284 117.135 0.000105647 171.94 0Z" fill="url(#paint0_linear_873_1453)"/>
<g filter="url(#filter0_d_873_1453)">
<path fill-rule="evenodd" clip-rule="evenodd" d="M193 141C206.422 141 217.303 151.881 217.303 165.303C217.303 173.717 213.026 181.132 206.528 185.494L221.263 211.016C223.357 214.642 220.74 219.174 216.553 219.175H169.448C165.261 219.175 162.643 214.642 164.737 211.016L179.471 185.494C172.974 181.132 168.697 173.717 168.697 165.303C168.697 151.881 179.578 141 193 141Z" fill="#BEC1CF"/>
</g>
<path d="M72.955 335.675C69.685 335.675 66.865 334.97 64.495 333.56C62.125 332.12 60.295 330.095 59.005 327.485C57.715 324.845 57.07 321.725 57.07 318.125C57.07 314.525 57.7 311.42 58.96 308.81C60.25 306.17 62.065 304.145 64.405 302.735C66.775 301.295 69.55 300.575 72.73 300.575C75.58 300.575 78.055 301.115 80.155 302.195C82.285 303.275 83.95 304.775 85.15 306.695C86.35 308.615 86.98 310.82 87.04 313.31H79.12C78.88 311.63 78.205 310.25 77.095 309.17C76.015 308.09 74.59 307.55 72.82 307.55C70.45 307.55 68.575 308.51 67.195 310.43C65.845 312.35 65.17 314.93 65.17 318.17C65.17 321.35 65.845 323.915 67.195 325.865C68.575 327.815 70.525 328.79 73.045 328.79C74.485 328.79 75.64 328.49 76.51 327.89C77.41 327.29 78.085 326.51 78.535 325.55C78.985 324.56 79.27 323.51 79.39 322.4H87.265C87.145 325.19 86.47 327.575 85.24 329.555C84.04 331.535 82.39 333.05 80.29 334.1C78.22 335.15 75.775 335.675 72.955 335.675ZM99.7321 335C97.6321 335 95.9371 334.37 94.6471 333.11C93.3871 331.82 92.7571 330.125 92.7571 328.025V301.25H100.047V326.765C100.047 327.335 100.227 327.8 100.587 328.16C100.947 328.52 101.397 328.7 101.937 328.7H103.332V335H99.7321ZM120.62 335.675C118.07 335.675 115.805 335.105 113.825 333.965C111.845 332.825 110.285 331.25 109.145 329.24C108.035 327.2 107.48 324.875 107.48 322.265C107.48 319.595 108.035 317.24 109.145 315.2C110.285 313.16 111.845 311.57 113.825 310.43C115.805 309.26 118.07 308.675 120.62 308.675C123.2 308.675 125.465 309.26 127.415 310.43C129.395 311.57 130.94 313.16 132.05 315.2C133.19 317.24 133.76 319.595 133.76 322.265C133.76 324.875 133.19 327.2 132.05 329.24C130.94 331.25 129.395 332.825 127.415 333.965C125.465 335.105 123.2 335.675 120.62 335.675ZM120.62 329.375C122.3 329.375 123.665 328.715 124.715 327.395C125.795 326.075 126.335 324.365 126.335 322.265C126.335 320.105 125.795 318.35 124.715 317C123.665 315.65 122.3 314.975 120.62 314.975C118.94 314.975 117.56 315.65 116.48 317C115.43 318.35 114.905 320.105 114.905 322.265C114.905 324.365 115.43 326.075 116.48 327.395C117.56 328.715 118.94 329.375 120.62 329.375ZM150.391 335.675C148.141 335.675 146.131 335.195 144.361 334.235C142.621 333.275 141.256 331.955 140.266 330.275C139.276 328.565 138.781 326.615 138.781 324.425V309.35H146.071V324.695C146.071 326.075 146.476 327.2 147.286 328.07C148.096 328.94 149.131 329.375 150.391 329.375C151.651 329.375 152.686 328.94 153.496 328.07C154.306 327.2 154.711 326.075 154.711 324.695V309.35H162.001V324.425C162.001 326.615 161.506 328.565 160.516 330.275C159.526 331.955 158.161 333.275 156.421 334.235C154.681 335.195 152.671 335.675 150.391 335.675ZM179.15 335.675C176.78 335.675 174.68 335.105 172.85 333.965C171.05 332.795 169.625 331.19 168.575 329.15C167.555 327.08 167.045 324.71 167.045 322.04C167.045 319.43 167.525 317.12 168.485 315.11C169.445 313.1 170.78 311.525 172.49 310.385C174.2 309.245 176.15 308.675 178.34 308.675C179.87 308.675 181.265 308.945 182.525 309.485C183.815 310.025 184.88 310.835 185.72 311.915V301.25H193.01V335H186.845L186.305 331.49C184.745 334.28 182.36 335.675 179.15 335.675ZM180.23 329.285C181.91 329.285 183.245 328.625 184.235 327.305C185.225 325.985 185.72 324.2 185.72 321.95C185.72 319.7 185.225 317.93 184.235 316.64C183.245 315.32 181.91 314.66 180.23 314.66C178.46 314.66 177.05 315.32 176 316.64C174.98 317.93 174.47 319.7 174.47 321.95C174.47 324.2 174.98 325.985 176 327.305C177.05 328.625 178.46 329.285 180.23 329.285ZM199.847 335V301.25H207.137V311.87C207.977 310.82 208.997 310.025 210.197 309.485C211.427 308.945 212.747 308.675 214.157 308.675C215.507 308.675 216.872 308.93 218.252 309.44C219.632 309.95 220.892 310.76 222.032 311.87C223.172 312.95 224.087 314.345 224.777 316.055C225.467 317.765 225.812 319.835 225.812 322.265C225.812 324.875 225.347 327.2 224.417 329.24C223.487 331.25 222.182 332.825 220.502 333.965C218.822 335.105 216.842 335.675 214.562 335.675C212.942 335.675 211.427 335.3 210.017 334.55C208.607 333.77 207.467 332.66 206.597 331.22L206.012 335H199.847ZM212.627 329.285C214.397 329.285 215.792 328.625 216.812 327.305C217.862 325.985 218.387 324.2 218.387 321.95C218.387 319.7 217.862 317.93 216.812 316.64C215.792 315.32 214.397 314.66 212.627 314.66C210.947 314.66 209.612 315.32 208.622 316.64C207.632 317.93 207.137 319.7 207.137 321.95C207.137 324.2 207.632 325.985 208.622 327.305C209.612 328.625 210.947 329.285 212.627 329.285ZM234.808 306.56C233.638 306.56 232.648 306.215 231.838 305.525C231.058 304.835 230.668 303.935 230.668 302.825C230.668 301.745 231.058 300.86 231.838 300.17C232.648 299.48 233.638 299.135 234.808 299.135C235.948 299.135 236.908 299.48 237.688 300.17C238.498 300.86 238.903 301.745 238.903 302.825C238.903 303.935 238.498 304.835 237.688 305.525C236.908 306.215 235.948 306.56 234.808 306.56ZM231.163 335V309.35H238.453V335H231.163ZM244.42 335V319.925C244.42 317.615 244.885 315.62 245.815 313.94C246.775 312.26 248.125 310.97 249.865 310.07C251.605 309.14 253.66 308.675 256.03 308.675C258.4 308.675 260.455 309.14 262.195 310.07C263.935 310.97 265.27 312.26 266.2 313.94C267.16 315.62 267.64 317.615 267.64 319.925V335H260.35V320.015C260.35 318.395 259.945 317.15 259.135 316.28C258.355 315.41 257.32 314.975 256.03 314.975C254.77 314.975 253.735 315.41 252.925 316.28C252.115 317.15 251.71 318.395 251.71 320.015V335H244.42ZM285.598 335.675C282.988 335.675 280.723 335.135 278.803 334.055C276.883 332.945 275.383 331.385 274.303 329.375C273.253 327.335 272.728 324.935 272.728 322.175C272.728 319.415 273.253 317.03 274.303 315.02C275.353 313.01 276.823 311.45 278.713 310.34C280.633 309.23 282.883 308.675 285.463 308.675C288.133 308.675 290.398 309.275 292.258 310.475C294.148 311.675 295.558 313.415 296.488 315.695C297.448 317.975 297.853 320.72 297.703 323.93H280.063C280.303 325.85 280.933 327.35 281.953 328.43C282.973 329.51 284.293 330.05 285.913 330.05C287.233 330.05 288.313 329.735 289.153 329.105C289.993 328.445 290.518 327.65 290.728 326.72H297.523C297.223 328.58 296.518 330.185 295.408 331.535C294.328 332.855 292.948 333.875 291.268 334.595C289.588 335.315 287.698 335.675 285.598 335.675ZM285.508 314.255C284.038 314.255 282.823 314.735 281.863 315.695C280.903 316.625 280.303 317.885 280.063 319.475H290.503C290.383 317.585 289.828 316.25 288.838 315.47C287.848 314.66 286.738 314.255 285.508 314.255ZM312.311 335C310.211 335 308.516 334.37 307.226 333.11C305.966 331.82 305.336 330.125 305.336 328.025V315.2H301.106V309.35H305.336V302.6H312.626V309.35H317.846V315.2H312.626V326.765C312.626 327.335 312.806 327.8 313.166 328.16C313.526 328.52 313.976 328.7 314.516 328.7H318.611V335H312.311Z" fill="white"/>
<defs>
<filter id="filter0_d_873_1453" x="151" y="138" width="78" height="98.1748" filterUnits="userSpaceOnUse" color-interpolation-filters="sRGB">
<feFlood flood-opacity="0" result="BackgroundImageFix"/>
<feColorMatrix in="SourceAlpha" type="matrix" values="0 0 0 0 0 0 0 0 0 0 0 0 0 0 0 0 0 0 127 0" result="hardAlpha"/>
<feOffset dx="-3" dy="7"/>
<feGaussianBlur stdDeviation="5"/>
<feComposite in2="hardAlpha" operator="out"/>
<feColorMatrix type="matrix" values="0 0 0 0 0.870181 0 0 0 0 0.879802 0 0 0 0 0.889423 0 0 0 1 0"/>
<feBlend mode="normal" in2="BackgroundImageFix" result="effect1_dropShadow_873_1453"/>
<feBlend mode="normal" in="SourceGraphic" in2="effect1_dropShadow_873_1453" result="shape"/>
</filter>
<linearGradient id="paint0_linear_873_1453" x1="222.049" y1="264.297" x2="73.6885" y2="-21.124" gradientUnits="userSpaceOnUse">
<stop stop-color="#DBE1E8"/>
<stop offset="1" stop-color="white"/>
</linearGradient>
</defs>
</svg>
