<svg width="803" height="365" viewBox="0 0 803 365" fill="none" xmlns="http://www.w3.org/2000/svg">
<rect x="146.594" y="227.651" width="511.117" height="120.133" rx="49.0094" fill="#131415"/>
<rect width="284.575" height="342.058" transform="matrix(0.999996 -0.000219921 0.271605 0.962639 176.649 18.2437)" fill="url(#paint0_linear_88_602)"/>
<path d="M320.077 181.226L462.304 17.2908L554.142 347.36L320.077 181.226Z" fill="url(#paint1_linear_88_602)"/>
<path d="M414.179 196.313L267.187 349.586L182.784 39.7601L414.179 196.313Z" fill="#F1F1F1"/>
<path d="M396.941 131.432C422.458 144.629 433.2 177.298 417.453 193.811L349.753 264.8C332.088 283.322 295.17 267.948 285.31 237.964L243.311 110.239C233.452 80.2539 258.619 59.8918 287.242 74.6957L396.941 131.432Z" fill="#F1F1F1"/>
<path d="M320.206 91.8897L235.878 190.781L176.025 17.6323L320.206 91.8897Z" fill="#F1F1F1"/>
<path d="M198.439 43.6779L191.99 70.4196L176.254 17.9013L198.439 43.6779Z" fill="#F1F1F1"/>
<mask id="mask0_88_602" style="mask-type:alpha" maskUnits="userSpaceOnUse" x="352" y="147" width="61" height="55">
<rect x="352.688" y="147.643" width="60.1554" height="53.8046" fill="#D9D9D9"/>
</mask>
<g mask="url(#mask0_88_602)">
<path d="M382.766 196.965C379.299 196.965 376.04 196.376 372.991 195.199C369.941 194.022 367.288 192.425 365.032 190.407C362.777 188.39 360.991 186.017 359.675 183.289C358.359 180.562 357.701 177.647 357.701 174.546C357.701 171.445 358.359 168.53 359.675 165.803C360.991 163.075 362.777 160.703 365.032 158.685C367.288 156.667 369.941 155.07 372.991 153.893C376.04 152.716 379.299 152.127 382.766 152.127C386.233 152.127 389.492 152.716 392.541 153.893C395.591 155.07 398.243 156.667 400.499 158.685C402.755 160.703 404.541 163.075 405.857 165.803C407.173 168.53 407.831 171.445 407.831 174.546V177.797C407.831 180.001 406.985 181.879 405.293 183.429C403.601 184.98 401.523 185.755 399.058 185.755C397.596 185.755 396.217 185.475 394.922 184.915C393.627 184.354 392.541 183.551 391.664 182.505C390.452 183.588 389.084 184.401 387.559 184.943C386.035 185.484 384.437 185.755 382.766 185.755C379.299 185.755 376.343 184.662 373.899 182.477C371.455 180.291 370.233 177.647 370.233 174.546C370.233 171.445 371.455 168.801 373.899 166.615C376.343 164.43 379.299 163.337 382.766 163.337C386.233 163.337 389.189 164.43 391.632 166.615C394.076 168.801 395.298 171.445 395.298 174.546V177.797C395.298 178.768 395.653 179.59 396.363 180.263C397.074 180.935 397.972 181.272 399.058 181.272C400.144 181.272 401.042 180.935 401.752 180.263C402.463 179.59 402.818 178.768 402.818 177.797V174.546C402.818 169.539 400.875 165.298 396.99 161.823C393.105 158.349 388.364 156.611 382.766 156.611C377.168 156.611 372.427 158.349 368.542 161.823C364.657 165.298 362.714 169.539 362.714 174.546C362.714 179.553 364.657 183.794 368.542 187.269C372.427 190.743 377.168 192.481 382.766 192.481H395.298V196.965H382.766ZM388.092 179.31C389.554 178.002 390.285 176.414 390.285 174.546C390.285 172.678 389.554 171.09 388.092 169.782C386.63 168.474 384.855 167.82 382.766 167.82C380.677 167.82 378.902 168.474 377.44 169.782C375.977 171.09 375.246 172.678 375.246 174.546C375.246 176.414 375.977 178.002 377.44 179.31C378.902 180.618 380.677 181.272 382.766 181.272C384.855 181.272 386.63 180.618 388.092 179.31Z" fill="#767A8C"/>
</g>
<defs>
<linearGradient id="paint0_linear_88_602" x1="152.107" y1="439.36" x2="133.593" y2="-37.8028" gradientUnits="userSpaceOnUse">
<stop stop-color="#BFBDBD"/>
<stop offset="1" stop-color="#595858"/>
</linearGradient>
<linearGradient id="paint1_linear_88_602" x1="529.364" y1="180.341" x2="374.374" y2="219.823" gradientUnits="userSpaceOnUse">
<stop stop-color="#D9D9D9"/>
<stop offset="1" stop-color="#737373"/>
</linearGradient>
</defs>
</svg>
