<svg width="22" height="22" viewBox="0 0 22 22" fill="none" xmlns="http://www.w3.org/2000/svg">
<mask id="mask0_84_185" style="mask-type:alpha" maskUnits="userSpaceOnUse" x="0" y="0" width="22" height="22">
<rect width="21.1302" height="21.1302" fill="#D9D9D9"/>
</mask>
<g mask="url(#mask0_84_185)">
<path d="M8.07786 9.53062C7.3882 8.84096 7.04336 8.01189 7.04336 7.04342C7.04336 6.07496 7.3882 5.24589 8.07786 4.55623C8.76753 3.86656 9.59659 3.52173 10.5651 3.52173C11.5335 3.52173 12.3626 3.86656 13.0523 4.55623C13.7419 5.24589 14.0868 6.07496 14.0868 7.04342C14.0868 8.01189 13.7419 8.84096 13.0523 9.53062C12.3626 10.2203 11.5335 10.5651 10.5651 10.5651C9.59659 10.5651 8.76753 10.2203 8.07786 9.53062ZM3.52167 17.6085V15.1433C3.52167 14.6444 3.65006 14.1859 3.90685 13.7677C4.16364 13.3495 4.50481 13.0303 4.93035 12.8102C5.84012 12.3553 6.76456 12.0142 7.70368 11.7867C8.6428 11.5593 9.59659 11.4455 10.5651 11.4455C11.5335 11.4455 12.4873 11.5593 13.4264 11.7867C14.3656 12.0142 15.29 12.3553 16.1998 12.8102C16.6253 13.0303 16.9665 13.3495 17.2233 13.7677C17.4801 14.1859 17.6085 14.6444 17.6085 15.1433V17.6085H3.52167Z" fill="#616872"/>
</g>
</svg>
