<svg width="21" height="21" viewBox="0 0 21 21" fill="none" xmlns="http://www.w3.org/2000/svg">
<mask id="mask0_84_195" style="mask-type:alpha" maskUnits="userSpaceOnUse" x="0" y="0" width="21" height="21">
<rect width="20.8359" height="20.8359" fill="#D9D9D9"/>
</mask>
<g mask="url(#mask0_84_195)">
<path d="M13.1852 12.7512C13.9449 11.9915 14.3247 11.0691 14.3247 9.98389C14.3247 8.89868 13.9449 7.97626 13.1852 7.21661C12.4256 6.45697 11.5032 6.07715 10.418 6.07715C9.33276 6.07715 8.41034 6.45697 7.6507 7.21661C6.89105 7.97626 6.51123 8.89868 6.51123 9.98389C6.51123 11.0691 6.89105 11.9915 7.6507 12.7512C8.41034 13.5108 9.33276 13.8906 10.418 13.8906C11.5032 13.8906 12.4256 13.5108 13.1852 12.7512ZM8.75761 11.6442C8.30182 11.1885 8.07393 10.635 8.07393 9.98389C8.07393 9.33276 8.30182 8.77931 8.75761 8.32352C9.21339 7.86774 9.76684 7.63984 10.418 7.63984C11.0691 7.63984 11.6225 7.86774 12.0783 8.32352C12.5341 8.77931 12.762 9.33276 12.762 9.98389C12.762 10.635 12.5341 11.1885 12.0783 11.6442C11.6225 12.1 11.0691 12.3279 10.418 12.3279C9.76684 12.3279 9.21339 12.1 8.75761 11.6442ZM4.64468 14.7262C2.90835 13.547 1.64951 11.9662 0.868164 9.98389C1.64951 8.00158 2.90835 6.4208 4.64468 5.24154C6.38101 4.06228 8.30544 3.47266 10.418 3.47266C12.5305 3.47266 14.4549 4.06228 16.1913 5.24154C17.9276 6.4208 19.1864 8.00158 19.9678 9.98389C19.1864 11.9662 17.9276 13.547 16.1913 14.7262C14.4549 15.9055 12.5305 16.4951 10.418 16.4951C8.30544 16.4951 6.38101 15.9055 4.64468 14.7262Z" fill="#616872"/>
</g>
</svg>
