<svg width="21" height="21" viewBox="0 0 21 21" fill="none" xmlns="http://www.w3.org/2000/svg">
<mask id="mask0_210_454" style="mask-type:alpha" maskUnits="userSpaceOnUse" x="0" y="0" width="21" height="21">
<rect width="20.8359" height="20.8359" fill="#D9D9D9"/>
</mask>
<g mask="url(#mask0_210_454)">
<path d="M17.1896 19.6206L13.5434 16.0177C13.0369 16.1768 12.5269 16.2962 12.0132 16.3758C11.4996 16.4554 10.9678 16.4952 10.418 16.4952C8.23309 16.4952 6.28695 15.8911 4.57957 14.6829C2.87218 13.4747 1.63504 11.9084 0.868164 9.98394C1.17202 9.21706 1.55546 8.50444 2.01848 7.84608C2.4815 7.18772 3.00964 6.5981 3.60288 6.0772L1.21543 3.64634L2.43086 2.43091L18.4051 18.4051L17.1896 19.6206ZM10.418 13.8907C10.5771 13.8907 10.7254 13.8834 10.8629 13.869C11.0004 13.8545 11.1487 13.8256 11.3078 13.7822L6.61975 9.09407C6.57634 9.25323 6.5474 9.40154 6.53293 9.539C6.51847 9.67646 6.51123 9.82477 6.51123 9.98394C6.51123 11.0691 6.89105 11.9916 7.6507 12.7512C8.41034 13.5109 9.33276 13.8907 10.418 13.8907ZM16.7556 14.2813L13.9991 11.5466C14.1004 11.3007 14.18 11.0511 14.2379 10.7978C14.2958 10.5446 14.3247 10.2733 14.3247 9.98394C14.3247 8.89873 13.9449 7.97631 13.1852 7.21666C12.4256 6.45702 11.5032 6.0772 10.418 6.0772C10.1286 6.0772 9.85728 6.10614 9.60406 6.16401C9.35085 6.22189 9.10125 6.30871 8.85527 6.42446L6.64145 4.21064C7.2347 3.96466 7.84241 3.78018 8.4646 3.65719C9.08678 3.5342 9.73791 3.47271 10.418 3.47271C12.6028 3.47271 14.549 4.0768 16.2564 5.285C17.9638 6.49319 19.2009 8.05951 19.9678 9.98394C19.635 10.8376 19.1973 11.6298 18.6547 12.3605C18.1121 13.0912 17.479 13.7315 16.7556 14.2813ZM12.7403 10.2878L10.1358 7.6833C10.541 7.61095 10.9135 7.64351 11.2536 7.78097C11.5936 7.91843 11.8866 8.11738 12.1326 8.37783C12.3786 8.63828 12.5558 8.93852 12.6643 9.27855C12.7729 9.61858 12.7982 9.955 12.7403 10.2878Z" fill="#616872"/>
</g>
</svg>
